<svg width="200" height="200" viewBox="0 0 200 200" xmlns="http://www.w3.org/2000/svg"><g fill="currentColor"><path d="M56.3 113.7c9.4 1 10.3 9.1 9.7 16.9 -.2 3.2-1.4 6.7-4.8 7.7 1.6.8 2.8 1.3 3.8 2.9 2.2 3.5 2 13.8 0 17.4 -2 3.6-5.4 5-8.2 5H36.5v-49.9h19.8Zm-8.7 19.9H53c.9 0 2-1.2 2.2-2.1 .2-.9.2-5.8 0-6.8s-1.4-1.9-2.2-1.9h-5.4v10.8Zm5.4 9.6c-1.6-.2-3.7.2-5.4 0v11.3h5.9c.9 0 2-1.3 2.2-2.1 .3-1.3.3-6.8-.4-7.8s-1.6-1.2-2.3-1.3Z"/><path d="M111.6 113c8.2-.8 16.5 1.7 17.8 10.9 -.6 9.5.8 19.9 0 29.3 -1.2 14.7-29 16-30.2-1 -.7-8.7.5-18.1 0-26.9 .5-7.4 5.2-11.6 12.4-12.3Zm2.2 9.8c-1.6.1-3.1.9-3.5 2.5v26.2c.3 4 7.9 4 8.4 0 -.5-8.1.7-17.2 0-25.2 -.2-2.8-2.3-3.6-4.9-3.4Z"/><path d="M161.6 114.6v10.3c-1.8-.6-3.6-1.1-5.4-1.4 -2.7-.4-9.7-.9-10.5 2.6v25.5c1 3.1 4.7 2.7 7.3 2.1v-17h10.6v24.1c-1.2.9-2.7 1.4-4.1 1.9 -8.9 2.7-24 2.2-24.9-9.8 -.7-9.2.6-19.3 0-28.6 1.8-12.5 17.7-12.3 27.1-9.7Z"/><path d="M83.1 113.7l0 40.8 13.4 0 0 9.1 -24.5 0 0-49.9 11.1 0Z"/><path d="M98.2 67.8a5.8 5.7 0 1 0 0 11.4 5.8 5.7 0 1 0 0-11.4Z"/><path d="M118.6 72.8c0-11.3-9.2-20.4-20.5-20.4s-20.5 9.2-20.5 20.4 3.8 13.8 10.2 17.7c.3.2.8.3 1.2.2 .4-.1.7-.4.9-.7l3.2-5.4c.2-.4.3-.8.2-1.2 -.1-.4-.4-.7-.7-.9 -3.4-2-5.6-5.7-5.6-9.4C87 67 92 62 98.1 62c6.1 0 11.1 5 11.1 11.1s-2.1 7.7-5.5 9.3c-.4.2-.7.5-.8.9 -.1.4 0 .8.1 1.2l3.2 5.4c.2.4.6.6 1 .7 .4 0 .8 0 1.2-.2 6.4-3.9 10.2-10.5 10.2-17.7Z"/><path d="M115.4 105.2c.4.7 1.4 1 2.1.6 11.7-6.6 18.9-19.1 18.9-32.5 0-20.8-17-37.8-37.8-37.8 -20.8 0-37.8 16.9-37.8 37.8s7.2 25.9 18.9 32.5c.7.4 1.7.2 2.1-.6l3.6-6.2c.2-.4.3-.8.2-1.2 -.1-.4-.4-.7-.7-.9 -8.5-4.9-13.8-14-13.8-23.7 0-15.1 12.3-27.5 27.5-27.5s27.5 12.3 27.5 27.5 -5.1 18.7-13.8 23.7c-.3.2-.6.5-.7.9 -.1.4 0 .8.2 1.2l3.6 6.2Z"/></g></svg>