<svg width="200" height="200" viewBox="0 0 200 200" xmlns="http://www.w3.org/2000/svg"><path fill="currentColor" d="M118.054 79.5l-3.237 26.65c-.406 5.549-.284 14.392 7.723 12.985 8.033-1.411 11.652-15.035 11.981-21.886 1.194-24.858-16.715-39.08-40.417-39.08 -28.142 0-48.781 18.939-49.593 47.299 -.904 31.601 23.39 52.764 54.449 49.997 11.331-1.009 22.166-6.433 30.225-14.299l9.318 9.848c.127.157.014.221-.068.341 -.319.464-1.474 1.384-1.968 1.814 -18.654 16.257-43.766 20.422-67.058 12.015 -48.095-17.36-54.523-83.118-11.739-110.377 28.302-18.032 72.63-12.981 87.755 19.654 8.181 17.651 5.465 42.66-11.272 54.4 -8.751 6.138-23.744 7.657-30.724-1.879 -.605-.826-1.047-1.762-1.699-2.549 -7.699 11.489-24.34 12.655-33.534 2.161 -9.88-11.277-6.649-33.028 3.98-42.844 8.389-7.747 21.879-8.883 30.294-.606l.337-3.642h15.247ZM92.256 94.517c-11.535.933-12.6 22.838-.866 21.667 6.162-.615 8.242-8.684 8.186-13.82 -.048-4.479-2.434-8.241-7.32-7.846Z"/></svg>