<svg width="200" height="200" viewBox="0 0 200 200" xmlns="http://www.w3.org/2000/svg"><path fill="currentColor" d="M144.95 114.048c-.014-.014-.041-.014-.055-.028l.041-.083 -23.917-13.809 24.027-13.872 -.014-.014c1.271-.788 1.699-2.459.94-3.758 -.028-.041-.041-.055-.069-.083l.014-.014 -7.627-13.223h-.014c-.774-1.257-2.39-1.699-3.689-.995l-.014-.014 -24.083 13.9V54.214h-.014c-.055-1.506-1.271-2.708-2.777-2.708h-.111v-.028H92.334c-1.478.041-2.667 1.216-2.708 2.697h-.014v27.786l-24.11-13.938 -.014.014c-1.326-.718-2.972-.263-3.731 1.05 -.028.028-.028.055-.041.083l-.014-.014 -7.627 13.209v0c-.705 1.299-.276 2.915.981 3.689h-.014l.041.028s.014 0 .014.014h.014l24.056 13.9 -23.527 13.582c-.207.055-.401.138-.594.249 -1.34.76-1.782 2.459-1.036 3.786h-.014l7.889 13.665 .041-.028c.843 1.009 2.334 1.313 3.523.622 .014-.014.014-.028.041-.041l.041.069 23.986-13.858v27.067c-.055.193-.083.415-.083.636 0 1.52 1.23 2.763 2.763 2.777h15.779v-.055c1.299-.235 2.307-1.368 2.307-2.736 0-.028-.014-.041-.014-.055h.083v-27.717l23.433 13.527c.152.138.318.276.511.387 1.313.76 3.012.304 3.786-1.009v0l7.641-13.25v-.028l.235-.415 -.041-.028c.442-1.257-.041-2.68-1.23-3.371l.258.276Z"/></svg>