<svg width="200" height="200" viewBox="0 0 200 200" xmlns="http://www.w3.org/2000/svg"><path fill="currentColor" d="M31.018 101.804c0 30.474 19.786 56.314 47.234 65.44 3.454.637 4.711-1.486 4.711-3.325 0-1.645-.071-5.969-.106-11.744 -19.214 4.156-23.272-9.25-23.272-9.25 -3.152-7.977-7.686-10.099-7.686-10.099 -6.287-4.28.461-4.209.461-4.209 6.925.478 10.58 7.092 10.58 7.092 6.146 10.541 16.152 7.481 20.101 5.73 .62-4.475 2.409-7.499 4.375-9.232 -15.337-1.751-31.472-7.658-31.472-34.089 0-7.533 2.674-13.691 7.102-18.518 -.708-1.751-3.082-8.755.673-18.253 0 0 5.791-1.857 18.986 7.075 5.49-1.539 11.406-2.317 17.285-2.335 5.862.018 11.777.778 17.286 2.317 13.177-8.932 18.968-7.092 18.968-7.092 3.769 9.498 1.381 16.514.673 18.235 4.428 4.811 7.084 10.966 7.084 18.5 0 26.493-16.152 32.313-31.534 34.031 2.462 2.122 4.676 6.349 4.676 12.77 0 9.215-.089 16.643-.089 18.907 0 1.839 1.24 3.997 4.747 3.307 27.416-9.144 47.181-34.984 47.181-65.44 0-38.097-30.924-68.981-69.089-68.981l.197.182c-38.149 0-69.071 30.881-69.071 68.981Z"/></svg>