<svg width="200" height="200" viewBox="0 0 200 200" xmlns="http://www.w3.org/2000/svg"><g fill="currentColor"><path d="M152.732 109.583l4.679-35.079c.061-.47.089-.945.089-1.42 0-3.82-1.903-7.187-4.792-9.261v-11.74c0-5.286-4.3-9.583-9.583-9.583h-86.25c-5.283 0-9.583 4.298-9.583 9.583v11.74c-2.889 2.074-4.792 5.441-4.792 9.261 0 .475.028.95.089 1.434l4.679 35.065 -4.679 35.079c-.061.47-.089.945-.089 1.42 0 6.296 5.124 11.418 11.418 11.418h92.165c6.294 0 11.418-5.122 11.418-11.418 0-.475-.028-.95-.089-1.434l-4.679-35.065Zm-100.649-57.5c0-2.641 2.148-4.792 4.792-4.792h86.25c2.644 0 4.792 2.15 4.792 4.792v9.769c-.601-.098-1.206-.186-1.834-.186H53.918c-.628 0-1.234.087-1.834.186v-9.769 0Zm95.852 57.816l4.722 35.367c.033.269.051.543.051.816 0 3.655-2.971 6.626-6.626 6.626H53.918c-3.655 0-6.626-2.971-6.626-6.626 0-.274.019-.548.047-.803l4.726-35.381c.023-.208.023-.423 0-.632L47.344 73.9c-.033-.269-.051-.543-.051-.816 0-3.655 2.971-6.626 6.626-6.626h92.165c3.655 0 6.626 2.971 6.626 6.626 0 .274-.019.548-.047.803l-4.726 35.38c-.023.208-.023.424 0 .632Z"/><path d="M100 97.604c0-7.927-6.448-14.375-14.375-14.375s-14.375 6.448-14.375 14.375c0 1.324 1.072 2.396 2.396 2.396 1.324 0 2.396-1.072 2.396-2.396 0-5.285 4.3-9.583 9.583-9.583s9.583 4.298 9.583 9.583 -4.301 9.583-9.584 9.583c-1.324 0-2.396 1.072-2.396 2.396 0 1.324 1.072 2.396 2.396 2.396 5.283 0 9.583 4.298 9.583 9.583s-4.3 9.583-9.583 9.583 -9.583-4.298-9.583-9.583c0-1.324-1.072-2.396-2.396-2.396 -1.324 0-2.396 1.072-2.396 2.396 0 7.927 6.448 14.375 14.375 14.375s14.375-6.448 14.375-14.375c0-5.001-2.573-9.403-6.458-11.979 3.885-2.576 6.458-6.978 6.458-11.979Z"/><path d="M127.487 83.512c-.781-.416-1.722-.37-2.461.119l-14.375 9.583c-1.1.735-1.399 2.22-.664 3.322 .735 1.1 2.227 1.39 3.322.664l10.65-7.101v43.441c0 1.324 1.072 2.396 2.396 2.396 1.324 0 2.396-1.072 2.396-2.396V85.623c0-.884-.487-1.696-1.264-2.113Z"/><path d="M73.646 52.083a2.396 2.396 0 1 0 0 4.792 2.396 2.396 0 1 0 0-4.792Z"/><path d="M126.354 52.083a2.396 2.396 0 1 0 0 4.792 2.396 2.396 0 1 0 0-4.792Z"/></g></svg>