<svg width="210" height="210" viewBox="0 0 210 210" xmlns="http://www.w3.org/2000/svg"><g fill="none"><path d="M77.514 109.868l-3.689 4.884c2.076 1.568 4.514 2.325 6.935 2.325 3.494 0 6.949-1.579 9.213-4.575 3.831-5.072 2.822-12.316-2.25-16.147 -2.379-1.797-2.853-5.195-1.056-7.574 1.797-2.379 5.195-2.852 7.574-1.055l3.69-4.884c-5.072-3.832-12.316-2.822-16.147 2.25 -3.831 5.072-2.822 12.316 2.25 16.147 2.379 1.797 2.852 5.195 1.056 7.573 -1.798 2.379-5.196 2.852-7.574 1.055Z"/><path d="M124.407 62.478l-6.122 0 0-8.57 -5.44 0 0 8.57 -6.122 0 0-8.57 -5.441 0 0 8.57 -6.121 0 0-8.57 -5.441 0 0 8.57 -6.122 0 0-8.57 -5.44 0 0 8.57 -6.122 0 0-8.57 -5.441 0 0 14.283 63.253 0 0-14.283 -5.441 0 0 8.57Z"/><path d="M106.995 132.872l-40.4 0 0 4.081 63.253 0 0-52.369 -22.853 45.544 0 2.744Z"/><path d="M130.182 13.281H57.749c-11.406 0-22.08 4.394-30.056 12.373 -7.976 7.979-12.369 18.656-12.369 30.065v72.456c0 11.409 4.393 22.087 12.369 30.065 7.976 7.979 18.65 12.373 30.056 12.373h72.433c11.406 0 22.08-4.394 30.056-12.373 7.976-7.979 12.368-18.656 12.368-30.065V55.719c0-11.409-4.393-22.087-12.368-30.065 -7.976-7.979-18.65-12.373-30.056-12.373Zm6.318 129.428h-.531v.365H60.474v-10.202H31.5v-4.193l28.974-57.744V47.787h.531v-.365h11.032v-8.816h.531v-.365h6.121v9.182h4.91v-8.816h.531v-.365h6.121v9.182h4.91v-8.816h.531v-.365h6.121v9.182h4.91v-8.816h.531v-.365h6.121v9.182h4.91V38.61h.531v-.365h6.121v9.182h11.562v95.287Z"/></g><g fill="currentColor"><path d="M204.974 92.388c-.045-5.594.068-8.47-.036-13.492 -.316-12.917-5.852-25.091-14.66-33.751l-.109-.112c-6.099-6.12-12.206-12.223-18.322-18.339 -1.699-2.44-3.613-4.753-5.755-6.896C156.553 10.256 143.799 5 130.183 5H57.749c-.319 0-.635.017-.953.023 -.923-.001-1.652-.003-2.146-.006 -.69-.013-1.376-.001-2.061.016 -.229.006-.459.008-.687.017 -.666.026-1.328.068-1.987.122 -.13.01-.261.018-.391.03 -25.086 2.185-44.524 23.009-44.524 48.705v76.078c0 15.02 6.648 28.371 17.177 37.316 7.316 7.319 14.582 14.589 21.923 21.929 9.327 9.959 22.809 15.945 36.626 15.763 17.334-.033 49.273.024 65.968 0 4.25-.03 6.331.045 10.162-.024 25.316-.331 46.464-20.787 47.958-45.537 .357-9.163.079-43.221.161-67.044Zm-32.367 35.786c0 11.409-4.393 22.087-12.368 30.065 -7.976 7.979-18.65 12.373-30.056 12.373H57.749c-11.406 0-22.08-4.394-30.056-12.373 -7.976-7.979-12.369-18.656-12.369-30.065V55.719c0-11.409 4.393-22.087 12.369-30.065 7.976-7.979 18.65-12.373 30.056-12.373h72.433c11.406 0 22.08 4.394 30.056 12.373 7.976 7.979 12.368 18.656 12.368 30.065v72.456Z"/><path d="M124.937 38.239h-6.121v.365h-.531v8.816h-4.91v-9.182h-6.121v.365h-.531v8.816h-4.91v-9.182h-6.121v.365h-.531v8.816h-4.91v-9.182H84.13v.365h-.531v8.816h-4.91v-9.182h-6.121v.365h-.531v8.816H61.005v.365h-.531v23.148L31.5 128.673v4.193h28.974v10.202h75.495v-.365h.531V47.421h-11.562v-9.182Zm4.911 98.714H66.595v-4.081h40.4v-2.744l22.853-45.544v52.369Zm-45.816-35.714c-5.072-3.832-6.081-11.075-2.25-16.147 3.831-5.072 11.075-6.082 16.147-2.25l-3.69 4.884c-2.378-1.797-5.776-1.324-7.574 1.055 -1.797 2.379-1.323 5.776 1.056 7.574 5.072 3.832 6.081 11.075 2.25 16.147 -2.264 2.997-5.719 4.575-9.213 4.575 -2.42 0-4.859-.757-6.935-2.325l3.689-4.884c2.378 1.797 5.776 1.324 7.574-1.055 1.797-2.379 1.323-5.776-1.056-7.573Zm45.816-47.331v14.283H66.595V53.908h5.441v8.57h6.121v-8.57h5.441v8.57h6.121v-8.57h5.441v8.57h6.121v-8.57h5.441v8.57h6.121v-8.57h5.441v8.57h6.121v-8.57h5.441Z"/></g></svg>