<svg width="200" height="200" viewBox="0 0 200 200" xmlns="http://www.w3.org/2000/svg"><g fill="none"><path d="M68.893 60.703l-5.99 0 0 15.723 69.629 0 0-15.723 -5.99 0 0 9.434 -6.738 0 0-9.434 -5.99 0 0 9.434 -6.738 0 0-9.434 -5.99 0 0 9.434 -6.738 0 0-9.434 -5.99 0 0 9.434 -6.738 0 0-9.434 -5.989 0 0 9.434 -6.738 0 0-9.434Z"/><path d="M93.334 97.93l4.062-5.377c-5.583-4.218-13.558-3.106-17.775 2.477 -4.217 5.583-3.106 13.557 2.477 17.775 2.619 1.978 3.14 5.718 1.162 8.337 -1.979 2.619-5.719 3.14-8.337 1.162l-4.061 5.377c2.285 1.726 4.969 2.559 7.634 2.559 3.846 0 7.65-1.738 10.141-5.036 4.217-5.584 3.106-13.557-2.477-17.775 -2.619-1.978-3.14-5.718-1.162-8.337 1.979-2.619 5.719-3.14 8.337-1.162Z"/><path d="M132.532 94.471l-25.157 50.136 0 3.02 -44.472 0 0 4.493 69.629 0 0-57.649Z"/></g><path fill="currentColor" d="M127.126 53.563V43.456h-6.738v.402h-.584v9.705h-5.405V43.456h-6.738v.402h-.584v9.705h-5.406V43.456h-6.738v.402h-.584v9.705h-5.406V43.456h-6.738v.402h-.584v9.705h-5.405V43.456h-6.738v.402h-.584v9.705H56.75v.402h-.584v25.481L24.271 143.01v4.616h31.895v11.23h83.105v-.402h.584V53.563h-12.728ZM75.631 70.137v-9.434h5.989v9.434h6.738v-9.434h5.99v9.434h6.738v-9.434h5.99v9.434h6.738v-9.434h5.989v9.434h6.738v-9.434h5.99v15.723H62.903V60.703h5.99v9.434h6.738Zm10.528 37.292c5.583 4.218 6.694 12.192 2.477 17.775 -2.492 3.299-6.295 5.036-10.141 5.036 -2.664 0-5.349-.833-7.634-2.559l4.061-5.377c2.618 1.978 6.358 1.457 8.337-1.162 1.978-2.619 1.457-6.359-1.162-8.337 -5.583-4.218-6.694-12.192-2.477-17.775 4.217-5.583 12.192-6.695 17.775-2.477l-4.062 5.377c-2.618-1.978-6.359-1.457-8.337 1.162 -1.978 2.619-1.457 6.359 1.162 8.337Zm-23.256 40.198h44.473v-3.021l25.156-50.135v57.648H62.903v-4.492Z"/></svg>