<svg width="200" height="200" viewBox="0 0 200 200" xmlns="http://www.w3.org/2000/svg"><g fill="currentColor"><path d="M130.865 39.076h-61.73c-16.637.008-30.122 13.475-30.129 30.091v61.68c0 16.611 13.483 30.077 30.115 30.077h61.772c16.632-.008 30.109-13.48 30.102-30.091V69.167c-.008-16.616-13.492-30.084-30.129-30.091ZM100 139.444c-21.801-.015-39.461-17.678-39.446-39.451 .015-21.773 17.701-39.411 39.501-39.396 21.779.015 39.431 17.644 39.446 39.396 0 21.788-17.686 39.451-39.501 39.451Zm39.724-69.154c-5.368 0-9.719-4.346-9.719-9.707 0-5.361 4.351-9.707 9.719-9.707 5.368 0 9.719 4.346 9.719 9.707 0 5.361-4.352 9.707-9.719 9.707Z"/><path d="M100 75.885c-13.335 0-24.145 10.797-24.145 24.115 0 13.318 10.81 24.115 24.145 24.115 13.335 0 24.145-10.796 24.145-24.115v-.083c-.023-13.295-10.833-24.054-24.145-24.031Z"/></g></svg>