<svg width="200" height="200" viewBox="0 0 200 200" xmlns="http://www.w3.org/2000/svg"><g fill="currentColor"><path d="M66.905 83.764H43.093c-2.747 0-4.453 1.707-4.453 4.453l-.2 75.911h27c.398-.042 3.274-.394 5-3 1.461-2.206 1.091-4.507 1-5 -.027-22.637-.054-45.274-.081-67.911 0-2.747-1.706-4.453-4.453-4.453Z"/><path d="M53.999 40.092c-9.326 0-16.359 7.033-16.359 16.359s7.033 16.359 16.359 16.359 16.359-7.033 16.359-16.359 -7.033-16.359-16.359-16.359Z"/><path d="M139.439 163.127c4.603.327 19 0 19 0s-.737-.727-.737-3.473v-44.481c-3.614-15.902-14.386-27.637-26.846-29.222 -4.955-.631-10.05.33-15.145 2.856l-3.092 1.532 .988-3.306c.445-1.487-.016-2.714-.676-3.114 -.368-.223-.825-.217-1.146-.17l-.21.015H87.763c-2.747 0-4.453 1.707-4.453 4.453v71.438c0 2.747.128 4.473.128 4.473s14.775-.007 20 0c1.874-.49 4.562-1.547 6-4 .961-1.639 1.007-3.274 1-4 -.121-11.723-.242-23.446-.362-35.168 0-5.556 4.874-10.43 10.43-10.43s10.43 4.874 10.43 10.43l-.497 35.168c.102.882.367 1.949 1 3 2.322 3.858 7.474 3.994 8 4Z"/></g></svg>