<?xml version="1.0" encoding="UTF-8"?>
<svg id="a" data-name="Layer 1" xmlns="http://www.w3.org/2000/svg" width="400" height="400" viewBox="0 0 400 400">
  <polygon points="334.375 110.125 334.375 109.125 333.875 109.125 333.875 108.125 333.375 108.125 333.375 107.125 332.875 107.125 332.875 106.125 332.375 106.125 332.375 105.125 331.875 105.125 331.875 104.125 331.375 104.125 331.375 103.125 330.875 103.125 330.875 102.125 330.375 102.125 330.375 101.125 329.875 101.125 329.875 100.125 329.375 100.125 329.375 99.125 328.875 99.125 328.875 98.125 328.375 98.125 328.375 97.125 327.875 97.125 327.875 96.125 327.375 96.125 327.375 95.125 326.875 95.125 326.875 94.125 326.375 94.125 326.375 93.125 325.875 93.125 325.875 92.125 325.375 92.125 325.375 91.125 324.875 91.125 324.875 90.125 324.375 90.125 324.375 89.125 323.875 89.125 323.875 88.125 323.375 88.125 323.375 87.125 322.875 87.125 322.875 86.125 322.375 86.125 322.375 85.125 321.875 85.125 321.875 84.125 321.375 84.125 321.375 83.125 320.875 83.125 320.875 82.125 320.375 82.125 320.375 81.125 319.875 81.125 319.875 80.125 319.375 80.125 319.375 79.125 318.875 79.125 318.875 78.125 318.375 78.125 318.375 77.125 317.875 77.125 317.875 76.125 317.375 76.125 317.375 75.125 316.875 75.125 316.875 74.125 316.375 74.125 316.375 73.125 315.875 73.125 315.875 72.125 315.375 72.125 315.375 71.125 314.875 71.125 314.875 70.125 314.375 70.125 314.375 69.125 313.875 69.125 313.875 68.125 313.375 68.125 313.375 67.125 312.875 67.125 312.875 66.125 312.375 66.125 312.375 65.125 311.875 65.125 311.875 64.125 311.375 64.125 311.375 63.125 310.875 63.125 310.875 62.125 310.375 62.125 310.375 61.125 309.875 61.125 309.875 60.125 309.375 60.125 309.375 59.125 308.875 59.125 308.875 58.125 308.375 58.125 308.375 57.125 307.875 57.125 307.875 56.125 307.375 56.125 307.375 55.125 306.875 55.125 306.875 54.125 306.375 54.125 306.375 53.125 305.875 53.125 305.875 52.125 305.375 52.125 305.375 51.125 304.875 51.125 304.875 289.875 65.625 289.875 65.625 290.875 66.125 290.875 66.125 291.875 66.625 291.875 66.625 292.875 67.125 292.875 67.125 293.875 67.625 293.875 67.625 294.875 68.125 294.875 68.125 295.875 68.625 295.875 68.625 296.875 69.125 296.875 69.125 297.875 69.625 297.875 69.625 298.875 70.125 298.875 70.125 299.875 70.625 299.875 70.625 300.875 71.125 300.875 71.125 301.875 71.625 301.875 71.625 302.875 72.125 302.875 72.125 303.875 72.625 303.875 72.625 304.875 73.125 304.875 73.125 305.875 73.625 305.875 73.625 306.875 74.125 306.875 74.125 307.875 74.625 307.875 74.625 308.875 75.125 308.875 75.125 309.875 75.625 309.875 75.625 310.875 76.125 310.875 76.125 311.875 76.625 311.875 76.625 312.875 77.125 312.875 77.125 313.875 77.625 313.875 77.625 314.875 78.125 314.875 78.125 315.875 78.625 315.875 78.625 316.875 79.125 316.875 79.125 317.875 79.625 317.875 79.625 318.875 80.125 318.875 80.125 319.875 80.625 319.875 80.625 320.875 81.125 320.875 81.125 321.875 81.625 321.875 81.625 322.875 82.125 322.875 82.125 323.875 82.625 323.875 82.625 324.875 83.125 324.875 83.125 325.875 83.625 325.875 83.625 326.875 84.125 326.875 84.125 327.875 84.625 327.875 84.625 328.875 85.125 328.875 85.125 329.875 85.625 329.875 85.625 330.875 86.125 330.875 86.125 331.875 86.625 331.875 86.625 332.875 87.125 332.875 87.125 333.875 87.625 333.875 87.625 334.875 88.125 334.875 88.125 335.875 88.625 335.875 88.625 336.875 89.125 336.875 89.125 337.875 89.625 337.875 89.625 338.875 90.125 338.875 90.125 339.875 90.625 339.875 90.625 340.875 91.125 340.875 91.125 341.875 91.625 341.875 91.625 342.875 92.125 342.875 92.125 343.875 92.625 343.875 92.625 344.875 93.125 344.875 93.125 345.875 93.625 345.875 93.625 346.875 94.125 346.875 94.125 347.875 94.625 347.875 94.625 348.875 95.125 348.875 95.125 349.875 334.875 349.875 334.875 110.125 334.375 110.125"/>
  <path d="M125.507,182.991l21.429-21.427c1.567-1.566,4.104-1.566,5.671,0l15.084,15.082,56.914-56.914c.751-.751,1.77-1.176,2.834-1.176s2.083.425,2.836,1.176l21.423,21.427c1.567,1.567,1.567,4.105,0,5.671l-81.038,81.043c-.785.783-1.805,1.174-2.834,1.174-.042,0-.085-.023-.125-.023-.046,0-.09.026-.138.026-1.065,0-2.083-.423-2.835-1.174l-39.223-39.214c-.751-.753-1.176-1.773-1.176-2.836s.424-2.083,1.176-2.835Z"/>
  <path d="M164.73,227.876c.751.751,1.77,1.174,2.835,1.174.048,0,.091-.026.138-.026.04,0,.083.023.125.023,1.03,0,2.05-.391,2.834-1.174l81.038-81.043c1.567-1.566,1.567-4.104,0-5.671l-21.423-21.427c-.753-.751-1.77-1.176-2.836-1.176s-2.083.425-2.834,1.176l-56.914,56.914-15.084-15.082c-1.567-1.566-4.104-1.566-5.671,0l-21.429,21.427c-.751.751-1.176,1.771-1.176,2.835s.424,2.083,1.176,2.836l39.223,39.214Z"/>
  <path d="M304.875,51.125v-1H65.125v239.75h239.75V51.125ZM283.371,268.371H86.629V71.629h196.741v196.741Z"/>
</svg>