<?xml version="1.0" encoding="UTF-8"?>
<svg id="a" data-name="Layer 1" xmlns="http://www.w3.org/2000/svg" width="400" height="400" viewBox="0 0 400 400">
  <path d="M180.698,65.807c.13,0,.263.029.397.076-.134-.046-.267-.076-.397-.076Z"/>
  <path d="M50.836,255.913c-.003-.014-.01-.027-.013-.042.003.014.01.027.013.042Z"/>
  <path d="M309.185,94.335c.093,0,.184.01.273.028-.088-.018-.179-.027-.273-.028Z"/>
  <path d="M309.847,94.505c.033.017.067.034.099.053-.032-.02-.066-.036-.099-.053Z"/>
  <path d="M310.088,94.665c.019.016.039.031.058.048-.018-.017-.039-.032-.058-.048Z"/>
  <path d="M181.143,65.898c.126.049.255.12.385.207-.13-.087-.259-.158-.385-.207Z"/>
  <path d="M309.565,94.393c.05.014.101.027.149.046-.048-.019-.099-.032-.149-.046Z"/>
  <path d="M184.609,70.504c.071.139.142.283.213.427-.071-.144-.142-.287-.213-.427Z"/>
  <path d="M182.078,66.571c.126.127.252.266.381.422-.129-.156-.255-.295-.381-.422Z"/>
  <path d="M183.566,68.6c.099.165.198.336.299.513-.1-.176-.2-.348-.299-.513Z"/>
  <path d="M183.067,67.815c.102.151.205.31.308.475-.103-.165-.206-.324-.308-.475Z"/>
  <path d="M181.603,66.156c.125.09.252.198.381.321-.129-.123-.255-.231-.381-.321Z"/>
  <path d="M184.056,69.455c.106.194.214.395.321.601-.108-.206-.215-.407-.321-.601Z"/>
  <path d="M182.567,67.128c.12.151.24.311.362.484-.122-.174-.242-.333-.362-.484Z"/>
  <path d="M52.233,65.807h0c-.696,0-1.277.494-1.411,1.15.134-.657.716-1.15,1.411-1.15Z"/>
  <path d="M51.055,256.401s-.001-.001-.002-.002c0,0,.001.001.002.002Z"/>
  <path d="M196.483,94.254c-.141-.287-.282-.572-.421-.841-.144-.293-.287-.583-.429-.858-.144-.293-.287-.583-.429-.858-.144-.293-.287-.583-.429-.858-.144-.293-.287-.583-.429-.858-.144-.293-.287-.583-.429-.858-.144-.293-.287-.583-.429-.858-.144-.293-.287-.583-.429-.858-.144-.293-.287-.583-.429-.858-.144-.293-.287-.583-.429-.858-.144-.293-.287-.583-.429-.858-.144-.293-.287-.583-.429-.858-.144-.293-.287-.583-.429-.858-.144-.293-.287-.583-.429-.858-.144-.293-.287-.583-.429-.858-.144-.293-.287-.583-.429-.858-.144-.293-.287-.583-.429-.858-.144-.293-.287-.583-.429-.858-.144-.293-.287-.583-.429-.858-.144-.293-.287-.583-.429-.858-.144-.293-.287-.583-.429-.858-.144-.293-.287-.583-.429-.858-.144-.293-.287-.583-.429-.858-.144-.293-.287-.583-.429-.858-.144-.293-.287-.583-.429-.858-.144-.293-.287-.583-.429-.858-.11-.225-.219-.442-.329-.658,3.851,7.936,8.277,21.766,11.468,22.937Z"/>
  <path d="M348.761,171.912c-.043-.336-.196-.635-.429-.858-.043-.336-.196-.635-.429-.858-.043-.336-.196-.635-.429-.858-.043-.336-.196-.635-.429-.858-.043-.336-.196-.635-.429-.858-.043-.336-.196-.635-.429-.858-.043-.336-.196-.635-.429-.858-.043-.336-.196-.635-.429-.858-.043-.336-.196-.635-.429-.858-.043-.336-.196-.635-.429-.858-.043-.336-.196-.635-.429-.858-.043-.336-.196-.635-.429-.858-.043-.336-.196-.635-.429-.858-.043-.336-.196-.635-.429-.858-.043-.336-.196-.635-.429-.858-.043-.336-.196-.635-.429-.858-.043-.336-.196-.635-.429-.858-.043-.336-.196-.635-.429-.858-.043-.336-.196-.635-.429-.858-.043-.336-.196-.635-.429-.858-.043-.336-.196-.635-.429-.858-.043-.336-.196-.635-.429-.858-.043-.336-.196-.635-.429-.858-.043-.336-.196-.635-.429-.858-.043-.336-.196-.635-.429-.858-.043-.336-.196-.635-.429-.858-.043-.336-.196-.635-.429-.858-.043-.336-.196-.635-.429-.858-.043-.336-.196-.635-.429-.858-.043-.336-.196-.635-.429-.858-.043-.336-.196-.635-.429-.858-.043-.336-.196-.635-.429-.858-.043-.336-.196-.635-.429-.858-.043-.336-.196-.635-.429-.858-.043-.336-.196-.635-.429-.858-.043-.336-.196-.635-.429-.858-.043-.336-.196-.635-.429-.858-.043-.336-.196-.635-.429-.858-.043-.336-.196-.635-.429-.858-.043-.336-.196-.635-.429-.858-.043-.336-.196-.635-.429-.858-.043-.336-.196-.635-.429-.858-.043-.336-.196-.635-.429-.858-.043-.336-.196-.635-.429-.858-.043-.336-.196-.635-.429-.858-.043-.336-.196-.635-.429-.858-.043-.336-.196-.635-.429-.858-.043-.336-.196-.635-.429-.858-.043-.336-.196-.635-.429-.858-.043-.336-.196-.635-.429-.858-.043-.336-.196-.635-.429-.858-.043-.336-.196-.635-.429-.858-.043-.336-.196-.635-.429-.858-.043-.336-.196-.635-.429-.858-.043-.336-.196-.635-.429-.858-.043-.336-.196-.635-.429-.858-.043-.336-.196-.635-.429-.858-.043-.336-.196-.635-.429-.858-.043-.336-.196-.635-.429-.858-.043-.336-.196-.635-.429-.858-.043-.336-.196-.635-.429-.858-.043-.336-.196-.635-.429-.858-.043-.336-.196-.635-.429-.858-.043-.336-.196-.635-.429-.858-.043-.336-.196-.635-.429-.858-.043-.336-.196-.635-.429-.858-.043-.336-.196-.635-.429-.858-.043-.336-.196-.635-.429-.858-.043-.336-.196-.635-.429-.858-.043-.336-.196-.635-.429-.858-.043-.336-.196-.635-.429-.858-.043-.336-.196-.635-.429-.858-.043-.336-.196-.635-.429-.858-.043-.336-.196-.635-.429-.858-.043-.336-.196-.635-.429-.858-.043-.336-.196-.635-.429-.858-.043-.336-.196-.635-.429-.858-.043-.336-.196-.635-.429-.858-.043-.336-.196-.635-.429-.858-.043-.336-.196-.635-.429-.858-.043-.336-.196-.635-.429-.858-.043-.336-.196-.635-.429-.858-.043-.336-.196-.635-.429-.858-.043-.336-.196-.635-.429-.858-.043-.336-.196-.635-.429-.858-.043-.336-.196-.635-.429-.858-.043-.336-.196-.635-.429-.858-.043-.336-.196-.635-.429-.858-.043-.336-.196-.635-.428-.857.008.06.018.119.018.182v159.8c0,.796-.645,1.441-1.441,1.441H52.233c-.386,0-.736-.154-.995-.402,0,0,0,0,0,.001.043.336.196.635.429.858.043.336.196.635.429.858.043.336.196.635.429.858.043.336.196.635.429.858.043.336.196.635.429.858.043.336.196.635.429.858.043.336.196.635.429.858.043.336.196.635.429.858.043.336.196.635.429.858.043.336.196.635.429.858.043.336.196.635.429.858.043.336.196.635.429.858.043.336.196.635.429.858.043.336.196.635.429.858.043.336.196.635.429.858.043.336.196.635.429.858.043.336.196.635.429.858.043.336.196.635.429.858.043.336.196.635.429.858.043.336.196.635.429.858.043.336.196.635.429.858.043.336.196.635.429.858.043.336.196.635.429.858.043.336.196.635.429.858.043.336.196.635.429.858.043.336.196.635.429.858.043.336.196.635.429.858.043.336.196.635.429.858.043.336.196.635.429.858.043.336.196.635.429.858.043.336.196.635.429.858.043.336.196.635.429.858.043.336.196.635.429.858.043.336.196.635.429.858.043.336.196.635.429.858.043.336.196.635.429.858.043.336.196.635.429.858.043.336.196.635.429.858.043.336.196.635.429.858.043.336.196.635.429.858.043.336.196.635.429.858.043.336.196.635.429.858.043.336.196.635.429.858.043.336.196.635.429.858.043.336.196.635.429.858.043.336.196.635.429.858.043.336.196.635.429.858.043.336.196.635.429.858.043.336.196.635.429.858.043.336.196.635.429.858.043.336.196.635.429.858.043.336.196.635.429.858.043.336.196.635.429.858.043.336.196.635.429.858.043.336.196.635.429.858.043.336.196.635.429.858.043.336.196.635.429.858.043.336.196.635.429.858.043.336.196.635.429.858.043.336.196.635.429.858.043.336.196.635.429.858.043.336.196.635.429.858.043.336.196.635.429.858.043.336.196.635.429.858.043.336.196.635.429.858.043.336.196.635.429.858.043.336.196.635.429.858.043.336.196.635.429.858.043.336.196.635.429.858.043.336.196.635.429.858.043.336.196.635.429.858.043.336.196.635.429.858.043.336.196.635.429.858.043.336.196.635.429.858.043.336.196.635.429.858.043.336.196.635.429.858.043.336.196.635.429.858.043.336.196.635.429.858.043.336.196.635.429.858.043.336.196.635.429.858.043.336.196.635.429.858.043.336.196.635.429.858.043.336.196.635.429.858.043.336.196.635.429.858.043.336.196.635.429.858.043.336.196.635.429.858.043.336.196.635.429.858.043.336.196.635.429.858.043.336.196.635.429.858.09.709.69,1.259,1.422,1.259h256.947c.796,0,1.441-.645,1.441-1.441v-159.8c0-.409-.173-.777-.447-1.039Z"/>
  <path d="M50.922,256.168c-.003-.007-.008-.013-.01-.02.003.007.008.013.01.02Z"/>
  <path d="M310.286,94.863c.009.011.019.022.028.034-.009-.012-.019-.022-.028-.034Z"/>
  <path d="M310.544,95.334s0,.002,0,.004c0-.001,0-.003,0-.004Z"/>
  <path d="M310.438,95.088c.003.006.006.012.01.018-.003-.006-.006-.012-.01-.018Z"/>
  <path d="M181.984,66.477c.031.03.063.062.095.093-.031-.032-.063-.064-.095-.093Z"/>
  <path d="M51.238,256.614c-.067-.065-.129-.136-.183-.213.054.077.116.148.183.213Z"/>
  <path d="M182.459,66.992c.036.043.072.09.108.136-.036-.045-.072-.093-.108-.136Z"/>
  <path d="M50.823,255.871c-.02-.095-.031-.194-.031-.296,0,.102.011.2.031.296Z"/>
  <path d="M51.053,256.399c-.051-.072-.093-.15-.131-.231.037.081.08.159.131.231Z"/>
  <path d="M50.912,256.148c-.033-.075-.056-.155-.076-.235.02.081.044.16.076.235Z"/>
  <path d="M181.095,65.883c.016.006.032.009.048.015-.016-.006-.032-.009-.048-.015Z"/>
  <path d="M181.527,66.105c.025.017.05.033.076.051-.026-.018-.051-.034-.076-.051Z"/>
  <path d="M310.314,94.896c.046.06.088.124.124.192-.037-.067-.078-.131-.124-.192Z"/>
  <path d="M310.602,95.593c-.011-.088-.031-.173-.057-.256.026.082.045.168.057.256h0Z"/>
  <path d="M310.448,95.106c.038.073.071.149.096.228-.026-.08-.058-.156-.096-.228Z"/>
  <path d="M309.945,94.559c.05.032.097.069.142.106-.046-.038-.092-.075-.142-.106Z"/>
  <path d="M182.929,67.612c.046.065.092.134.138.202-.046-.068-.092-.137-.138-.202Z"/>
  <path d="M196.904,94.334h0c-.138,0-.278-.028-.421-.081h0c.143.053.283.081.421.081Z"/>
  <path d="M185.015,71.316c-.065-.133-.128-.256-.193-.386.031.063.062.123.093.186.033.064.067.134.1.2Z"/>
  <path d="M310.146,94.713c.05.046.097.097.14.15-.044-.053-.089-.103-.14-.15Z"/>
  <path d="M184.378,70.056c.077.147.154.296.232.448-.077-.152-.155-.301-.232-.448Z"/>
  <path d="M183.864,69.113c.064.113.128.225.192.343-.064-.117-.129-.23-.192-.343Z"/>
  <path d="M183.375,68.289c.064.102.127.204.191.311-.064-.106-.127-.209-.191-.311Z"/>
  <path d="M309.457,94.362c.037.007.072.021.108.031-.036-.01-.071-.024-.108-.031Z"/>
  <polygon points="309.179 94.334 309.179 94.334 309.185 94.335 309.179 94.334"/>
  <path d="M309.715,94.44c.046.019.089.043.132.066-.044-.023-.086-.047-.132-.066Z"/>
  <path d="M309.179,257.016c.796,0,1.441-.645,1.441-1.441V95.775c0-.062-.01-.122-.018-.182h0c-.011-.088-.03-.174-.057-.256,0-.001,0-.003,0-.004-.026-.08-.058-.156-.096-.228-.003-.006-.006-.012-.01-.018-.036-.067-.078-.131-.124-.192-.009-.012-.019-.022-.028-.034-.043-.053-.09-.103-.14-.15-.018-.017-.039-.032-.058-.048-.046-.038-.093-.074-.142-.106-.032-.02-.066-.036-.099-.053-.043-.023-.086-.047-.132-.066-.048-.019-.099-.032-.149-.046-.036-.01-.071-.024-.108-.031-.088-.017-.179-.027-.273-.028-.002,0-.004,0-.006,0h-112.275c-.137,0-.278-.028-.421-.081h0c-3.192-1.171-7.618-15.002-11.468-22.937-.033-.066-.067-.136-.1-.2-.031-.063-.062-.124-.093-.186-.071-.144-.142-.287-.213-.427-.077-.152-.155-.301-.232-.448-.108-.206-.215-.407-.321-.601-.064-.117-.128-.23-.192-.343-.1-.176-.2-.348-.299-.513-.064-.106-.127-.209-.191-.311-.103-.165-.206-.324-.308-.475-.046-.068-.092-.137-.138-.202-.122-.173-.242-.334-.362-.484-.036-.045-.072-.092-.108-.136-.129-.155-.255-.295-.381-.422-.031-.032-.063-.063-.095-.093-.129-.123-.255-.231-.381-.321-.026-.018-.051-.034-.076-.051-.13-.087-.259-.159-.385-.207-.016-.006-.032-.009-.048-.015-.134-.046-.267-.076-.397-.076H52.233c-.696,0-1.277.494-1.411,1.15-.019.094-.029.191-.029.29v188.327c0,.102.011.201.031.296.003.014.01.027.013.042.02.081.043.16.076.235.003.007.008.013.01.02.037.081.08.159.131.231,0,0,.001.001.002.002.054.077.116.148.183.213.259.248.608.402.995.402h256.947ZM74.693,115.151h207.4v117.964H74.693v-117.964Z"/>
</svg>