<?xml version="1.0" encoding="UTF-8"?>
<svg id="a" data-name="Layer 1" xmlns="http://www.w3.org/2000/svg" width="400" height="400" viewBox="0 0 400 400">
  <path d="M132.406,92.202c9.313.939,17.914,5.151,24.757,11.691,10.453,9.906,19.782,27.726,34.847,12.668,5.036-4.977,9.372-10.887,15.021-15.258,7.226-5.767,15.731-9.139,24.426-9.557,25.335-.737,41.537,17.279,42.66,42.08,4.265,57.653-39.153,94.581-81.248,126.768-12.445,8.841-23.259,1.971-33.93-6.154-40.823-29.565-67.097-61.925-73.105-113.459-.31-6.147.306-12.148,1.827-17.555,5.561-21.274,23.786-33.713,44.548-31.243l.197.021Z"/>
</svg>