<?xml version="1.0" encoding="UTF-8"?>
<svg id="a" data-name="Layer 1" xmlns="http://www.w3.org/2000/svg" width="400" height="400" viewBox="0 0 400 400">
  <path d="M129.27,83.245c10.691,1.078,20.565,5.914,28.42,13.42,12,11.372,22.709,31.828,40.003,14.542,5.781-5.713,10.759-12.497,17.243-17.515,8.295-6.621,18.059-10.491,28.04-10.971,29.084-.846,47.683,19.836,48.973,48.306,4.896,66.183-44.947,108.576-93.27,145.525-14.286,10.15-26.7,2.263-38.95-7.065-46.863-33.939-77.024-71.087-83.921-130.247-.356-7.056.351-13.946,2.098-20.153,6.384-24.422,27.305-38.701,51.139-35.866l.226.024Z"/>
</svg>