<?xml version="1.0" encoding="UTF-8"?>
<svg id="a" data-name="Layer 1" xmlns="http://www.w3.org/2000/svg" width="400" height="400" viewBox="0 0 400 400">
  <path d="M345.572,217.849c-.124-.066-.227-.129-.262-.266-.961-3.785,19.068-29.667,19.068-29.667.728-.42,1.051-1.374.721-2.148-4.054-9.512-42.494-46.829-45.756-49.93l6.421-11.128c.421-.729.222-1.716-.452-2.221-6.613-4.955-14.141-7.599-21.743-8.287l4.276-7.411c.421-.729.222-1.716-.452-2.221-6.613-4.955-14.141-7.599-21.743-8.287l4.276-7.411c.421-.729.222-1.716-.452-2.221-6.613-4.955-14.141-7.599-21.743-8.287l4.276-7.411c.421-.729.222-1.716-.452-2.221-.106-.079-.23-.104-.336-.182-.112-.284.083-.64-.168-.828-14.204-10.645-32.616-11.138-46.95-2.76-2.775-2.966-12.69-13.137-17.135-11.919v-17.525c0-.283-.373-.329-.505-.572v-.437c0-.842-.665-1.597-1.499-1.697-20.049-2.413-38.29,9.28-45.003,27.403-.323.036-.638.124-.96.163-5.457-3.707-25.031-22.03-25.915-22.859l-.676-1.17c-.421-.729-1.375-1.051-2.149-.721-18.502,7.908-28.473,27.107-25.28,46.118-3.403,2.52-6.684,5.258-9.834,8.189l-25.938-14.968c-.729-.42-1.716-.222-2.221.451-10.623,14.154-11.15,32.542-2.806,46.883,1.138,2.081,2.452,4.08,3.954,5.979-1.651,3.832-3.115,7.744-4.336,11.727h-30.027c-.841,0-1.597.665-1.697,1.5-1.065,8.854.746,17.285,4.522,24.599.428.828.789,1.695,1.269,2.491.2.35.444.672.654,1.015,1.502,2.335,3.293,4.454,5.217,6.458,3.284,3.608,6.959,6.861,11.389,9.171,1.521,2.906,3.374,5.597,5.505,8.074.332,1.911.54,3.843.972,5.731l-25.989,15.013c-.728.421-1.052,1.374-.722,2.148.147.345.362.633.516.972.005.013-.017.024-.012.037,4.05,9.502,11.13,16.7,19.595,21.074,3.984,7.542,21.042,23.969,25.46,28.178l-3.879,6.719c-.892,1.54-1.137,3.377-.674,5.101.083.31.439.442.563.733.004.057-.07.231-.058.277.069.255.509.646,1.108,1.09.524.665.772,1.544,1.519,1.977,4.018,2.321,8.287,3.854,12.637,4.755,2.078.697,4.002,1.2,5.446,1.324,0,0-3.256,7.048-2.792,8.771s14.668,8.626,20.711,9.147l-2.118,3.67c-.892,1.54,13.994,13.726,20.037,14.248l-2.118,3.67c-.88,1.519,43.602,21.076,44.756,21.583.07.03.007-.011.035.059.514,1.27,16.88,16.889,17.861,17.826.08.075-.012.059.097.073,1.847.227,52.561-15.41,60.779-20.298,1.081-.643,1.748-1.05,1.914-1.145l11.3,19.575c.42.728,1.374,1.05,2.147.72,18.183-7.766,31.502-49.841,34.948-54.113.13-.162,25.809,14.596,25.809,14.596,1.037-.173,1.621-.271,2.658-.445,12.131-16.318,33.087-64.417,33.087-64.417.841,0,1.597-.665,1.697-1.5,2.175-18.09-7.191-34.615-22.346-42.62ZM89.449,230.18c-1.627-2.389-4.62-3.456-7.411-2.677-10.639,3.062-21.821-.175-29.135-7.909l23.25-13.432c.696-.401,1.004-1.215.76-1.981-2.394-7.493-3.901-15.348-4.464-23.241-.21-2.905-2.266-5.346-5.092-6.046-10.805-2.651-18.907-11.05-21.374-21.444h26.883c.806,0,1.482-.554,1.651-1.343,1.651-7.7,4.273-15.247,7.714-22.359,1.269-2.616.709-5.757-1.391-7.778-8.014-7.699-10.832-19.021-7.778-29.258l23.201,13.393c.693.4,1.557.256,2.099-.334,5.445-5.945,11.491-11.206,17.931-15.579,2.397-1.627,3.482-4.62,2.677-7.411-3.053-10.639.175-21.821,7.909-29.135l13.432,23.25c.402.696,1.216,1.004,1.981.759,7.493-2.393,15.348-3.9,23.241-4.463,2.905-.21,5.346-2.266,6.046-5.092,2.651-10.805,11.05-18.907,21.444-21.374v26.883c0,.806.554,1.482,1.343,1.651,7.7,1.651,15.248,4.273,22.359,7.714,2.616,1.269,5.766.709,7.778-1.391,7.708-8.006,19.012-10.823,29.258-7.778l-13.396,23.218c-.402.697-.258,1.561.337,2.102,5.921,5.386,11.183,11.444,15.579,17.91,1.627,2.389,4.62,3.456,7.411,2.677,10.622-3.053,21.821.175,29.135,7.909l-23.249,13.432c-.696.402-1.004,1.215-.76,1.981,2.393,7.493,3.9,15.348,4.463,23.241.21,2.905,2.266,5.346,5.092,6.046,10.805,2.651,18.907,11.05,21.374,21.444h-26.881c-.806,0-1.482.552-1.65,1.341-1.653,7.684-4.274,15.244-7.717,22.37-1.269,2.625-.709,5.766,1.391,7.778,8.023,7.699,10.84,19.012,7.778,29.249l-23.218-13.396c-.697-.402-1.561-.258-2.102.337-5.386,5.921-11.444,11.183-17.91,15.579-2.397,1.636-3.482,4.62-2.677,7.411,3.053,10.648-.175,21.821-7.918,29.135l-13.422-23.251c-.401-.696-1.214-1.003-1.978-.759-7.493,2.393-15.349,3.901-23.245,4.464-2.905.21-5.346,2.266-6.046,5.092-2.651,10.805-11.05,18.907-21.444,21.374v-26.882c0-.805-.552-1.481-1.34-1.65-7.685-1.651-15.246-4.273-22.371-7.716-.936-.455-1.934-.674-2.931-.674-1.785,0-3.552.717-4.847,2.065-7.699,8.014-19.056,10.814-29.258,7.778l13.407-23.218c.402-.696.258-1.56-.336-2.1-5.922-5.386-11.185-11.445-15.582-17.912Z"/>
  <path d="M172.864,207.205c18.522,0,33.597-15.075,33.597-33.597s-15.075-33.597-33.597-33.597-33.597,15.075-33.597,33.597,15.075,33.597,33.597,33.597ZM172.864,153.449c11.112,0,20.158,9.047,20.158,20.158s-9.047,20.158-20.158,20.158-20.158-9.047-20.158-20.158,9.047-20.158,20.158-20.158Z"/>
</svg>