<?xml version="1.0" encoding="UTF-8"?>
<svg id="a" data-name="Layer 1" xmlns="http://www.w3.org/2000/svg" width="400" height="400" viewBox="0 0 400 400">
  <rect x="127.486" y="251.353" width="82.686" height="20.626"/>
  <rect x="127.486" y="282.382" width="82.686" height="20.626"/>
  <path d="M221.779,33.152c-3.108-2.635-6.593-5.788-10.334-7.648-10.831-5.707-25.525-2.762-33.127,6.684-2.934,3.405-4.853,7.798-5.731,12.169-.804,4.04-5.389,38.84-7.05,51.403-.486,3.113-3.459,5.05-6.288,4.808-7.47.019-19.153.001-26.711.016-31.027-2.525-58.833,21.017-58.666,51.783.102,2.783,4.375,90.29,6.272,129.137,1.395,22.928-.356,28.761,10.167,45.103,8.043,14.475,21.368,20.406,35.985,27.142,11.009,5.27,24.114,11.647,34.364,16.211,11.406,4.125,47.485,2.549,74.43,3.039,6.625-.032,11.645-.078,17.503-.207,8.799-.311,33.525-17.16,43.324-32.505,2.289-3.675,3.734-6.913,4.013-10.38,1.338-23.95,2.828-49.798,4.208-73.738,1.68-31.838,3.162-52.947,3.335-76.364.478-15.107-83.137-142.067-85.618-146.581l-.076-.072ZM252.214,153.355c-1.202,19.777-5.451,120.601-7.499,148.608-2.713,17.425-17.762,30.79-36.077,31.573-17.49.214-69.938-.057-74.218.047-20.261.15-37.45-15.634-38.322-35.49-1.363-29.735-7.176-145.376-7.126-146.268-.001-.077,0-.359.017-.933.007-.224.016-.485.029-.758.882-19.347,17.034-34.904,36.956-35.54,3.894-.099,36.609.11,48.423-.115,2.4-.241,4.511-2.527,4.768-4.869.105-.829.766-6.03,1.666-13.111,2.402-18.623,5.945-47.332,6.442-50.369,1.245-7.16,9.649-11.564,16.407-8.658,3.749,1.484,6.576,4.913,7.26,8.903.383,2.503,5.165,40.263,7.369,57.276.514,4.003.857,6.679.923,7.194.168.964.652,2.32,1.547,3.191,1.315,1.424,3.194,1.671,4.963,2.256,1.965.623,3.88,1.401,5.712,2.319,12.916,6.249,21.501,20.353,20.767,34.623l-.004.123Z"/>
  <path d="M199.813,143.95h-62.059c-5.454-.013-10.69,2.133-14.565,5.971-3.859,3.905-6.035,9.166-6.062,14.656v41.433c.021,5.464,2.199,10.699,6.062,14.565,3.754,3.808,8.856,5.985,14.203,6.061h61.969c.061,0,.121,0,.182,0,11.391-.05,20.585-9.325,20.535-20.717l.452-41.252c0-.061,0-.121,0-.181-.05-11.391-9.325-20.585-20.717-20.535Z"/>
</svg>